<svg width="100%" height="100%" id="svg" viewBox="0 0 1440 700" xmlns="http://www.w3.org/2000/svg" class="transition duration-300 ease-in-out delay-150"><path d="M 0,700 C 0,700 0,175 0,175 C 68.67139175257732,185.96005154639175 137.34278350515464,196.92010309278353 187,193 C 236.65721649484536,189.07989690721647 267.3002577319587,170.27963917525773 326,171 C 384.6997422680413,171.72036082474227 471.45618556701027,191.96134020618558 531,181 C 590.5438144329897,170.03865979381442 622.875,127.875 692,144 C 761.125,160.125 867.0438144329895,234.53865979381445 929,229 C 990.9561855670105,223.46134020618555 1008.9497422680413,137.97036082474227 1053,110 C 1097.0502577319587,82.02963917525773 1167.1572164948454,111.5798969072165 1236,132 C 1304.8427835051546,152.4201030927835 1372.4213917525772,163.71005154639175 1440,175 C 1440,175 1440,700 1440,700 Z" stroke="none" stroke-width="0" fill="#0693e366" class="transition-all duration-300 ease-in-out delay-150 path-0"></path><path d="M 0,700 C 0,700 0,350 0,350 C 70.12868188512519,337.970176730486 140.25736377025038,325.940353460972 203,341 C 265.7426362297496,356.059646539028 321.09922680412376,398.208762886598 375,412 C 428.90077319587624,425.791237113402 481.34572901325475,411.22459499263624 544,389 C 606.6542709867452,366.77540500736376 679.5178571428571,336.8928571428571 733,333 C 786.4821428571429,329.1071428571429 820.5828424153167,351.2039764359352 870,346 C 919.4171575846833,340.7960235640648 984.1507731958766,308.2912371134021 1049,322 C 1113.8492268041234,335.7087628865979 1178.8140648011781,395.63107511045655 1244,408 C 1309.1859351988219,420.36892488954345 1374.592967599411,385.1844624447717 1440,350 C 1440,350 1440,700 1440,700 Z" stroke="none" stroke-width="0" fill="#0693e388" class="transition-all duration-300 ease-in-out delay-150 path-1"></path><path d="M 0,700 C 0,700 0,525 0,525 C 61.581369661266564,542.8935935198822 123.16273932253313,560.7871870397644 176,565 C 228.83726067746687,569.2128129602356 272.93041237113397,559.7448453608247 339,543 C 405.06958762886603,526.2551546391753 493.1156111929307,502.2334315169367 551,497 C 608.8843888070693,491.7665684830633 636.6071428571429,505.32142857142856 702,531 C 767.3928571428571,556.6785714285714 870.4558173784978,594.4808541973491 929,584 C 987.5441826215022,573.5191458026509 1001.5695876288657,514.7551546391753 1056,506 C 1110.4304123711343,497.24484536082474 1205.2658321060385,538.49852724595 1276,550 C 1346.7341678939615,561.50147275405 1393.3670839469808,543.2507363770251 1440,525 C 1440,525 1440,700 1440,700 Z" stroke="none" stroke-width="0" fill="#0693e3ff" class="transition-all duration-300 ease-in-out delay-150 path-2"></path></svg>